<svg width="1200" height="1200" xmlns="http://www.w3.org/2000/svg" xmlns:xlink="http://www.w3.org/1999/xlink" version="1.1"><g transform="scale(10.898495720486578) translate(5.053394953409827, 5.051587025324504)">                        <g fill="#50595c"><title xmlns="http://www.w3.org/2000/svg">3Artboard 1</title><path xmlns="http://www.w3.org/2000/svg" d="M8.87,77.53a7.39,7.39,0,0,0-1,.08v-.32A8.47,8.47,0,0,1,11,70.75,136.48,136.48,0,0,1,35.58,55a.77.77,0,0,0,.43-.69V46.1a19.23,19.23,0,0,1-2.4-6.56c-.91-.07-2.12-1.36-3.42-5.95-1.78-6.28.11-7.21,1.71-7.06A16.51,16.51,0,0,1,31.21,24h0a18.4,18.4,0,0,1,0-8.27A18,18,0,0,1,36,7.22a23.33,23.33,0,0,1,4.47-3.69A17.38,17.38,0,0,1,44.81,1.3h0A14.34,14.34,0,0,1,48.76.55a16.26,16.26,0,0,1,9.91,2.09,12.31,12.31,0,0,1,4.82,4.48s8,.57,5.3,16.83a16.42,16.42,0,0,1-.69,2.58c1.6-.15,3.49.78,1.71,7.06-1.3,4.59-2.51,5.88-3.42,5.95A18.83,18.83,0,0,1,64,46v8.26a.77.77,0,0,0,.43.69A136.48,136.48,0,0,1,89,70.75a8.47,8.47,0,0,1,3.12,6.54v.32a7.39,7.39,0,0,0-1-.08H62.39A25.55,25.55,0,0,0,50,80.76a25.55,25.55,0,0,0-12.39-3.23ZM96.76,93.11a3.14,3.14,0,0,1-3.14,3.14H61.22a2.3,2.3,0,0,0-2.3,2.3,1,1,0,0,1-1,1H42.06a1,1,0,0,1-1-1,2.3,2.3,0,0,0-2.3-2.3H6.38a3.14,3.14,0,0,1,0-6.28v-5a2.51,2.51,0,0,1,2.51-2.51H37.61A20.53,20.53,0,0,1,50,86.6a20.52,20.52,0,0,1,12.39-4.17H91.13a2.51,2.51,0,0,1,2.51,2.51v5A3.14,3.14,0,0,1,96.76,93.11ZM47.2,90.27A15.79,15.79,0,0,0,37.61,87H11v3.89H47A.37.37,0,0,0,47.2,90.27ZM89,87H62.39a15.79,15.79,0,0,0-9.59,3.23.37.37,0,0,0,.22.67H89Z"/></g>        </g></svg>